<?xml version="1.0" encoding="UTF-8" standalone="no"?>
<svg width="57px" height="57px" viewBox="0 0 57 57" version="1.1" xmlns="http://www.w3.org/2000/svg" xmlns:xlink="http://www.w3.org/1999/xlink">
    <!-- Generator: Sketch 3.8.3 (29802) - http://www.bohemiancoding.com/sketch -->
    <title>菩提</title>
    <desc>Created with Sketch.</desc>
    <defs></defs>
    <g id="Page-1" stroke="none" stroke-width="1" fill="none" fill-rule="evenodd">
        <path d="M5.08517771,26.1905326 L5.08517771,16.2823009 L10.4896677,17.1539928 L9.26929903,18.0837976 L9.26929903,18.1709668 L18.8869668,18.1709668 L19.7296023,16.9796545 L24.088062,18.8102075 L23.1001445,20.1468018 L23.1001445,26.1905326 L18.9450796,26.1905326 L18.9450796,24.9701639 L9.26929903,24.9701639 L9.26929903,26.1905326 L5.08517771,26.1905326 Z M18.393008,9.65744215 L20.8337454,10.7615853 C21.1049398,10.8584404 21.2986472,11.0085636 21.4148734,11.2119594 C21.5310996,11.4153553 21.463302,11.6235907 21.2114786,11.836672 C20.6884608,12.3209477 20.0976533,12.7858454 19.4390383,13.2313791 C18.7804234,13.6769128 18.0152792,14.0933836 17.1435829,14.4808042 L24.2624004,14.4808042 L25.4537127,13.3766611 L26.9065326,15.7883421 L1.54029715,15.7883421 L0.872,14.4808042 L8.77534026,14.4808042 C8.4654038,13.5509948 8.11673051,12.7180531 7.72930993,11.981954 C7.34188936,11.2458549 6.94478922,10.6066205 6.53799761,10.0642317 C7.37095186,10.1029738 8.18452286,10.2434116 8.97873505,10.4855495 C9.77294723,10.7276874 10.4412377,11.0182484 10.9836265,11.3572414 C11.5260153,11.6962344 11.884374,12.0449077 12.0587132,12.4032718 C12.2330525,12.7616358 12.1071427,13.0667249 11.6809801,13.3185483 L9.7632578,14.4808042 L15.836045,14.4808042 C16.1653525,13.7253341 16.4510709,12.9601899 16.6932087,12.1853488 C16.9353466,11.4105076 17.1726381,10.5678805 17.4050905,9.65744215 L3.34179383,9.65744215 L2.67349668,8.34990424 L13.1919128,8.34990424 C12.8432342,7.57506309 12.4606622,6.87771651 12.044185,6.25784358 C11.6277079,5.63797066 11.2257651,5.1246461 10.8383445,4.71785449 C11.7294119,4.69848346 12.5914097,4.77596641 13.4243639,4.95030567 C14.2573182,5.12464493 14.9498221,5.34256574 15.5018964,5.60407463 C16.0539707,5.86558352 16.4268574,6.15130191 16.6205677,6.46123837 C16.814278,6.77117483 16.7174243,7.05205054 16.3300037,7.30387391 L14.6447327,8.34990424 L22.4318473,8.34990424 L23.6522161,7.24576112 L25.0759796,9.65744215 L18.393008,9.65744215 Z M6.33460283,5.85105401 L6.33460283,3.96238814 L1.54029715,3.96238814 L0.872,2.65485023 L6.33460283,2.65485023 L6.33460283,0.156 L11.6519237,0.766184358 L10.4896677,1.75410189 L10.4896677,2.65485023 L17.3469777,2.65485023 L17.3469777,0.156 L22.6642985,0.766184358 L21.531099,1.75410189 L21.531099,2.65485023 L24.2624004,2.65485023 L25.4537127,1.55070711 L26.9065326,3.96238814 L21.531099,3.96238814 L21.531099,5.85105401 L17.3469777,5.85105401 L17.3469777,3.96238814 L10.4896677,3.96238814 L10.4896677,5.85105401 L6.33460283,5.85105401 Z M9.26929903,23.662626 L18.9450796,23.662626 L18.9450796,19.4785047 L9.26929903,19.4785047 L9.26929903,23.662626 Z M50.3792595,13.8706199 L50.3792595,16.9796545 L52.6747149,16.9796545 L53.8369709,15.8755113 L55.3188472,18.2871924 L50.3792595,18.2871924 L50.3792595,22.2098061 C52.1226521,22.3260323 54.088782,22.1904371 56.2777083,21.8030165 L54.8539448,25.0282767 C54.6408635,25.4156973 54.4132573,25.6675169 54.1711194,25.7837431 C53.9289816,25.8999692 53.5367241,25.9387107 52.9943353,25.8999686 C52.0257839,25.8418556 51.0863031,25.7159458 50.1758647,25.5222355 C49.2654263,25.3285252 48.3937431,25.0428068 47.5607889,24.6650717 C46.7278346,24.2873367 45.9384771,23.8127536 45.1926924,23.2413082 C44.4469078,22.6698629 43.7544039,21.977359 43.11516,21.1637758 C42.3209478,22.4228926 41.3233548,23.4689125 40.122351,24.3018668 C38.9213472,25.134821 37.5653955,25.7449993 36.0544553,26.1324198 C37.4879114,24.8151899 38.5726727,23.2413174 39.3087718,21.4107552 C40.0448709,19.5801929 40.4903979,17.3961422 40.6453661,14.8585374 L44.0449647,15.410609 C44.4130143,15.468722 44.6406204,15.5994745 44.7277901,15.8028703 C44.8149597,16.0062661 44.810117,16.2629284 44.7132619,16.5728649 C44.6357778,17.1927378 44.5147106,17.7835453 44.3500569,18.3453052 C44.1854032,18.907065 43.9868531,19.4397603 43.7544007,19.9434071 C44.4904998,20.5439089 45.3137562,21.018492 46.2241946,21.3671706 L46.2241946,13.8706199 L40.4710278,13.8706199 L39.7736742,12.563082 L53.6335761,12.563082 L54.8248884,11.4879952 L56.2777083,13.8706199 L50.3792595,13.8706199 Z M37.2167112,7.59443789 L37.2167112,12.4178 C37.6235028,12.3209448 38.049659,12.2144058 38.4951927,12.0981796 C38.9407264,11.9819534 39.4153094,11.8463582 39.9189562,11.69139 C39.6477618,12.0013265 39.2748751,12.3790559 38.8002849,12.8245895 C38.3256947,13.2701232 37.797842,13.7350209 37.2167112,14.2192966 L37.2167112,18.8683203 C37.2167112,20.7085681 36.9987904,22.1710588 36.5629422,23.2558364 C36.1270941,24.340614 35.4345902,25.1929265 34.4854098,25.8127995 C34.1173602,26.0258808 33.7735296,26.1421052 33.4539076,26.1614762 C33.1342857,26.1808473 32.8388819,25.9968252 32.5676875,25.6094047 L30.3303449,22.5003701 C30.8339916,22.5003701 31.2553052,22.4422579 31.5942982,22.3260317 C31.9332912,22.2098055 32.2093242,22.0112555 32.4224055,21.7303755 C32.6354868,21.4494956 32.7904527,21.0766089 32.8873079,20.6117042 C32.984163,20.1467995 33.0325899,19.5753627 33.0325899,18.8973767 L33.0325899,17.2121056 C32.8195085,17.3089608 32.6161158,17.4009718 32.4224055,17.4881414 C32.2286952,17.5753111 32.0446732,17.6576367 31.8703339,17.7351208 C31.6572526,17.7738629 31.4683879,17.7641775 31.3037342,17.7060644 C31.1390804,17.6479513 31.0373841,17.4639293 30.998642,17.1539928 L30.2431757,13.3185483 C31.0761299,13.3766614 32.0059253,13.3476053 33.0325899,13.2313791 L33.0325899,7.59443789 L30.9405292,7.59443789 L30.2722321,6.28689998 L33.0325899,6.28689998 L33.0325899,0.214112796 L38.3789671,0.824297155 L37.2167112,1.81221469 L37.2167112,6.28689998 L37.6816136,6.28689998 L38.8729259,5.21181326 L40.3257458,7.59443789 L37.2167112,7.59443789 Z M41.2846069,11.6042208 L41.2846069,0.59184597 L46.6019277,1.23108673 L45.4687282,2.18994786 L45.4687282,2.27711706 L49.9143571,2.27711706 L50.7569927,1.08580474 L54.8830012,2.50956824 L54.069422,3.84616255 L54.069422,11.3136568 L49.8853007,11.3136568 L49.8853007,10.3547957 L45.4687282,10.3547957 L45.4687282,11.6042208 L41.2846069,11.6042208 Z M45.4687282,5.70577202 L49.8853007,5.70577202 L49.8853007,3.58465497 L45.4687282,3.58465497 L45.4687282,5.70577202 Z M45.4687282,9.0472578 L49.8853007,9.0472578 L49.8853007,7.01330993 L45.4687282,7.01330993 L45.4687282,9.0472578 Z M2.49270131,49.2629269 C2.72515366,48.0716086 2.92854641,46.8415667 3.10288567,45.5727644 C3.27722493,44.303962 3.42734815,43.0206506 3.55325984,41.7227916 C3.67917153,40.4249327 3.77118253,39.1367786 3.82929562,37.8582907 L2.31836292,37.8582907 L1.67912217,36.5507528 L5.13683353,36.5507528 L5.13683353,30.8266424 L10.0764212,31.4949395 L8.97227807,32.4538006 L8.97227807,36.5507528 L9.64057523,36.5507528 L10.5122672,35.4466096 L11.9360307,37.8582907 L8.97227807,37.8582907 L8.97227807,39.0786594 C9.49529585,39.4273379 10.0037777,39.8292807 10.497739,40.2844999 C10.9917002,40.7397191 11.393643,41.1900888 11.7035795,41.6356224 C12.0135159,42.0811561 12.1878526,42.4927843 12.2265946,42.8705193 C12.2653367,43.2482544 12.1006854,43.5339728 11.7326359,43.7276831 L9.84397001,44.8318262 C9.74711487,44.018243 9.62604775,43.2337281 9.48076504,42.478258 C9.33548232,41.7227878 9.16598836,41.044812 8.97227807,40.4443101 L8.97227807,56.8030622 L5.13683353,56.8030622 L5.13683353,44.8608826 C4.73004193,46.3718229 4.22156005,47.8149429 3.61137264,49.1902859 C3.00118523,50.565629 2.36679355,51.7085025 1.70817857,52.6189409 C1.998744,51.5729053 2.26024897,50.4542452 2.49270131,49.2629269 Z M21.7958351,37.7711215 L19.2969848,37.7711215 L18.6286877,36.49264 L21.7958351,36.49264 L21.7958351,30.8266424 L26.6191971,31.4949395 L25.660336,32.4247442 L25.660336,36.202076 L26.3576896,35.3594404 L27.5199455,37.7711215 L25.660336,37.7711215 L25.660336,48.8416091 C25.660336,51.0886485 25.4036737,52.8513857 24.8903415,54.1298736 C24.3770092,55.4083615 23.6554492,56.2219325 22.7256398,56.570611 C22.2413641,56.7836923 21.8539493,56.8563326 21.5633839,56.788534 C21.2728184,56.7207354 21.0209989,56.5221853 20.8079175,56.1928778 L18.7739697,53.4615764 C19.3551005,53.5196895 19.839369,53.5196895 20.2267896,53.4615764 C20.6142101,53.4034633 20.924142,53.2291267 21.1565943,52.9385613 C21.3890467,52.6479958 21.5536979,52.2218396 21.6505531,51.6600797 C21.7474082,51.0983199 21.7958351,50.3622318 21.7958351,49.4517935 L21.7958351,37.7711215 Z M15.1903472,53.71017 C15.1322342,53.032184 15.0160097,52.2476691 14.8416705,51.3566018 C14.6673312,50.4655345 14.4445677,49.4969976 14.1733733,48.450962 C13.4953873,49.8263051 12.7205578,51.0660323 11.8488615,52.170181 C10.9771652,53.2743296 10.0086283,54.2331811 8.94322167,55.0467644 C9.77617591,53.6907923 10.5219493,52.0491223 11.1805643,50.1217049 C11.8391793,48.1942875 12.3912453,46.0877197 12.836779,43.8019383 C12.4881005,42.7559028 12.1200565,41.7244109 11.7326359,40.7074319 C11.3452153,39.6904529 10.9287444,38.7170733 10.4832108,37.7872639 C11.4711332,38.7558154 12.4202994,39.821206 13.3307378,40.9834677 C13.485706,39.9955452 13.6164585,39.0027949 13.7229991,38.0051869 C13.8295398,37.0075789 13.9118654,35.9857725 13.9699785,34.9397369 L11.2386771,34.9397369 L10.5994364,33.632199 L14.0280913,33.632199 L14.6673321,32.4408867 L18.967679,33.8355938 L18.1540998,35.1431317 C17.8635344,36.8671533 17.5293892,38.513666 17.1516541,40.0827194 C16.7739191,41.6517727 16.3332348,43.1433196 15.829588,44.5574047 C16.3138637,45.3322458 16.74002,46.0780192 17.1080695,46.7947473 C17.4761191,47.5114754 17.7618375,48.1603951 17.9652333,48.741526 C18.1686291,49.3226569 18.2848535,49.8214534 18.31391,50.2379305 C18.3429666,50.6544076 18.2606409,50.9498114 18.0669307,51.1241506 L15.1903472,53.71017 Z M17.957162,48.1258136 C18.0540172,46.7892126 18.0588599,45.4381036 17.9716902,44.0724461 C17.8845206,42.7067885 17.7053413,41.4428479 17.4341469,40.2805861 C18.0346488,40.842346 18.5915575,41.486423 19.1048898,42.2128366 C19.618222,42.9392502 20.0201648,43.6414394 20.3107303,44.3194255 C20.6012957,44.9974115 20.7465762,45.5979044 20.7465762,46.1209221 C20.7465762,46.6439399 20.5431835,46.9829278 20.1363919,47.1378961 L17.957162,48.1258136 Z M45.5478262,34.0454456 L45.5478262,57 L41.3637049,57 L41.3637049,34.0454456 L32.2109395,34.0454456 L31.5426424,32.7379077 L53.4802229,32.7379077 L54.6715352,31.6337645 L56.1243551,34.0454456 L45.5478262,34.0454456 Z M53.4382525,47.8020358 C53.0508319,46.8141133 52.6295184,45.8116776 52.1742992,44.7946986 C51.71908,43.7777196 51.2396542,42.80434 50.7360075,41.8745306 C50.2323607,40.9447212 49.7190362,40.0827233 49.1960184,39.2885112 C48.6730006,38.494299 48.1693614,37.8260085 47.6850857,37.2836197 C48.556782,37.6904113 49.4187799,38.1456237 50.2711051,38.6492704 C51.1234304,39.1529172 51.9176307,39.6710844 52.6537298,40.2037877 C53.3898289,40.736491 54.048434,41.2691863 54.6295648,41.8018896 C55.2106957,42.3345929 55.6707507,42.8382321 56.0097437,43.3128223 C56.3487367,43.7874125 56.5472868,44.2232541 56.6053999,44.6203602 C56.663513,45.0174663 56.5376032,45.3419262 56.2276667,45.5937495 L53.4382525,47.8020358 Z" id="菩提" fill="#1F1F1F"></path>
    </g>
</svg>